<svg xmlns="http://www.w3.org/2000/svg" viewBox="0 0 677.14 760.76"><defs><style>.cls-1{fill:#ec5a27;}</style></defs><title>dreamcatcher</title><g id="Layer_2" data-name="Layer 2"><g id="Layer_1-2" data-name="Layer 1"><path class="cls-1" d="M346.49,760.76h-15.2c-.27-.16-.52-.42-.8-.45-8.84-1.19-16.74-4.78-24.4-9.2q-115-66.29-230.14-132.46c-15.27-8.79-30.58-17.5-45.8-26.39q-24.29-14.18-29-42A26,26,0,0,0,0,546.66Q0,380.38,0,214.1a22.34,22.34,0,0,0,1.15-3.55A56.76,56.76,0,0,1,5.39,196c5.42-12.18,14.11-21.3,25.66-27.92q73.95-42.45,147.82-85Q243.59,45.84,308.3,8.59A60.42,60.42,0,0,1,328.65,1c1.53-.25,3-.69,4.54-1h11.4A6.23,6.23,0,0,0,346,.54a63.86,63.86,0,0,1,24.31,8.51q122.87,70.79,245.8,141.48c10.7,6.16,21.51,12.13,32.07,18.52,16.42,9.93,26.37,24.23,28.45,43.6a6.83,6.83,0,0,0,.5,1.46V546.66c-.34,2.17-.59,4.36-1.05,6.5-3.77,17.37-13.44,30.46-28.82,39.32l-154.66,89q-61.7,35.51-123.41,71a62.91,62.91,0,0,1-19.1,7.34C348.89,760.1,347.69,760.45,346.49,760.76ZM18.32,321.82l-.56.05q0,1.73,0,3.47,0,107.47,0,214.94c0,16.5,7.2,29,21.43,37.28,9.47,5.54,19,11,28.52,16.42.77.45,1.58.83,2.92,1.52-.46-1-.63-1.47-.87-1.89a55.57,55.57,0,0,1-6.61-18.67c-1.63-9.67-3.4-19.31-5.11-29q-5.88-33.16-11.76-66.32Q40.1,444.77,34,409.88q-6.22-35.19-12.46-70.38C20.45,333.61,19.38,327.72,18.32,321.82Zm588.9-156.19c.76,1.5,1.2,2.41,1.68,3.3a52.16,52.16,0,0,1,5.51,15.77q4.72,26.48,9.4,53,8.39,47.52,16.75,95,8.5,48.14,17,96.27c.6,3.39,1.27,6.76,1.91,10.14l.51-.06v-3.12q0-108,0-216c0-15.84-7.09-28-20.68-36.13-9.69-5.8-19.55-11.3-29.35-16.91C609.28,166.51,608.53,166.24,607.22,165.63Zm-58.54-33.11.37-.61c-1.16-.69-2.31-1.39-3.48-2.07L441,69.69q-40.47-23.29-81-46.54c-14-8-28.15-8-42.19-.11-9.76,5.47-19.4,11.14-29.08,16.73-.72.41-1.36,1-2,1.43a68.88,68.88,0,0,1,21.64,4.25q118.51,43,237.05,86C546.52,131.82,547.6,132.16,548.68,132.52ZM228.62,75.15l-.26-.43c-.9.45-1.82.85-2.69,1.35Q132.39,129.74,39.14,183.43c-14.18,8.17-21.27,20.64-21.36,37-.06,10.77,0,21.53,0,32.3,0,1,0,2,0,3,.44,0,.58,0,.62-.07a12.07,12.07,0,0,0,.92-1.27,58.1,58.1,0,0,1,13.25-15.19q96.94-81,193.84-162.07C227.16,76.52,227.88,75.82,228.62,75.15ZM448.69,686.06l.39.47c1.18-.65,2.37-1.27,3.54-1.94l125.07-72c20.48-11.79,41-23.47,61.41-35.39,13.67-8,20.64-20.15,20.88-36,.17-11.29,0-22.58,0-33.87,0-.76-.12-1.52-.23-2.8-.63.94-.94,1.35-1.2,1.8a57.87,57.87,0,0,1-13.2,15.23q-91.82,76.73-183.6,153.52ZM127.58,627.87l-.16.37c1.07.65,2.13,1.32,3.22,1.94q93.28,53.68,186.57,107.33c14.38,8.26,28.91,8.2,43.34,0,9.27-5.25,18.48-10.62,27.71-15.94.88-.51,1.73-1.07,3.13-1.93-1.21-.16-1.78-.28-2.35-.3a62.57,62.57,0,0,1-20.07-4Q250.2,672.19,131.37,629.13C130.12,628.68,128.84,628.29,127.58,627.87Zm115-541.8.18.65c1,0,2-.16,3.05-.13,3.68.1,7.43-.15,11,.45,18.09,3,36.15,6.26,54.22,9.44l77.56,13.68,78.5,13.8c3.18.56,6.36,1.05,9.54,1.58a8.74,8.74,0,0,0-3.3-1.89L346.72,77.72c-15.26-5.53-30.5-11.16-45.79-16.6-12-4.25-23.47-2.92-33.65,4.65C258.74,72.13,250.8,79.27,242.6,86.07ZM435.25,674.59a65.28,65.28,0,0,1-15.36-.79q-45.81-8-91.6-16.15-59.51-10.47-119-20.91c-2.77-.49-5.55-.91-8.33-1.36a5.69,5.69,0,0,0,2.5,1.56q86.39,31.35,172.79,62.66c13.51,4.89,26,2.7,37.07-6.49,6.75-5.58,13.45-11.23,20.16-16.86C434.09,675.73,434.66,675.14,435.25,674.59Zm56.47-47.92.47.39c.81-.65,1.64-1.29,2.44-2l102.73-85.91c12.63-10.56,25.32-21.05,37.86-31.71,10-8.46,14.47-19.3,12.84-32.35-.88-7-2.33-13.93-3.55-20.89-.57-3.26-1.18-6.51-1.89-10.45-.67,1.15-1,1.63-1.25,2.16a54.38,54.38,0,0,1-8.08,12.43Q563.55,541.2,493.83,624C493.1,624.89,492.42,625.79,491.72,626.66ZM48.58,389.39l-.49.15c.1.93.14,1.86.3,2.78q6.79,38.31,13.6,76.63c6.14,34.68,12.2,69.38,18.45,104,2.4,13.29,10.16,22.54,22.7,27.49,8.82,3.49,17.82,6.53,26.75,9.75a16,16,0,0,0,2.22.39,55.38,55.38,0,0,1-8.41-15.74q-11.17-30.78-22.42-61.53Q75.6,463.06,49.93,392.78C49.51,391.64,49,390.52,48.58,389.39Zm580.58-18,.55-.22c-.06-.62-.07-1.25-.18-1.86q-3.29-18.53-6.59-37.06Q616.45,295.63,610,259q-6.23-35.2-12.49-70.39c-2.55-14.21-10.76-23.74-24.24-28.76-8.1-3-16.25-5.91-24.38-8.85-.85-.31-1.74-.52-3.06-.9.57.94.85,1.48,1.21,2a54.47,54.47,0,0,1,6.75,13.19q37,101.34,74,202.65C628.2,369.1,628.7,370.23,629.15,371.37ZM185.69,134.69l-.52-.51c-.88.73-1.77,1.45-2.65,2.18L80,222.09c-12.55,10.5-25.18,20.9-37.62,31.52C32.43,262.1,28,273,29.73,286c.9,7,2.36,13.93,3.58,20.89.56,3.23,1.16,6.45,1.81,10.06a8,8,0,0,0,.91-1.16,55.7,55.7,0,0,1,9.07-14q69.37-82.34,138.7-164.71C184.46,136.31,185.06,135.49,185.69,134.69Zm24.18-1.55c5.46-1.05,10.74-.85,16-.85h185.8a7,7,0,0,0-2.89-1.12q-23.2-4.1-46.41-8.18L255.82,104.34c-12.62-2.21-23.1,1.53-31.39,11.33q-6.34,7.49-12.64,15C211.13,131.48,210.51,132.33,209.87,133.14Zm-50.8,61.19-.48-.29c-.61.67-1.24,1.32-1.83,2q-4.29,5.07-8.57,10.17-45.46,54-90.92,108c-8.08,9.61-10,20.43-5.85,32.27,2.34,6.66,4.84,13.27,7.3,19.89a11.33,11.33,0,0,0,.79,1.51c2.26-4.45,4.31-9,6.77-13.23q45.45-78.62,91-157.18C157.9,196.45,158.48,195.39,159.07,194.33ZM489.5,145.42l-.34.6c5.12,5.19,8.22,11.69,11.83,17.85,5.76,9.83,11.43,19.72,17.14,29.58l70.45,121.62c.62,1.08,1.29,2.13,1.94,3.19A6.46,6.46,0,0,0,590,315l-35.37-96.89c-5.82-15.95-11.58-31.92-17.51-47.84-4.33-11.64-12.71-18.6-24.94-20.89-3-.56-6-1.13-9-1.65C498.62,146.95,494.06,146.19,489.5,145.42ZM87.21,442.64l-.46.35c.33,1,.65,2,1,2.95L126.5,552c4.7,12.88,9.34,25.78,14.12,38.62C144.85,602,153,609,164.92,611.41c4.65.93,9.34,1.67,14,2.49l9.92,1.74c-.47-.76-.67-1.11-.9-1.44-2.47-3.54-5.21-6.92-7.37-10.64q-45.78-78.82-91.42-157.72C88.54,444.75,87.86,443.7,87.21,442.64ZM518.8,566.53l.43.27c.61-.65,1.26-1.28,1.83-2q49.64-59,99.27-117.92,12.51-14.86,5.77-33.12c-2.22-6-4.4-12.08-6.61-18.12-.35-.95-.79-1.86-1.18-2.77-2.25,4.46-4.21,8.86-6.6,13q-45.37,78.47-90.85,156.89C520.14,564,519.48,565.28,518.8,566.53ZM267.5,628.68l-.05.64c.46.12.92.29,1.38.37L316.17,638q51.38,9.05,102.77,18.09a52.45,52.45,0,0,0,11.29,1.07c9.33-.43,17-4.53,23-11.71,4.53-5.43,9.11-10.81,13.65-16.23.37-.44.65-1,1.16-1.74-11.92,2.05-23.53,1.13-35.1,1.15q-80.71.15-161.42,0ZM354,149.49h-2.2q-65.35,0-130.71.05c-10.4,0-18.43,4.74-23.88,13.6-3,4.85-5.73,9.84-8.57,14.77-.3.52-.51,1.08-.72,1.52C243.31,169.33,298.75,160,354,149.49ZM588.76,350.75c-1,3.16-1.84,6.21-2.92,9.17Q559.44,432.3,533,504.65c-.49,1.33-.92,2.67-1.38,4a10.21,10.21,0,0,0,2.38-3l37-63.82q13.64-23.56,27.29-47.11c4.57-7.9,5.6-16.3,1.79-24.58-3.07-6.67-7.21-12.85-10.88-19.25C589.12,350.8,589,350.8,588.76,350.75ZM88.92,410.53c1-3.3,1.81-6.15,2.82-8.91q26.43-72.52,52.92-145c.41-1.13.79-2.28,1.18-3.42a6.1,6.1,0,0,0-2.18,2.4q-6.84,11.77-13.66,23.54-25.14,43.41-50.28,86.83c-5.61,9.71-5.57,19.44.05,29.14q3.81,6.57,7.62,13.14C87.79,408.93,88.28,409.58,88.92,410.53Zm458-132.74c-.54-1-1.07-2-1.64-3l-17-29.28-47.08-81.29q-8.51-14.69-25.48-14.74-7.44,0-14.87,0c-.9,0-1.81.08-2.67.12C474.42,192.47,510.37,235.32,546.92,277.79ZM239.51,611.27,131.21,482.72a9.15,9.15,0,0,0,1.36,3.54l37.12,64.06c8.88,15.33,17.8,30.64,26.63,46,5.84,10.16,14.48,15.26,26.23,15.08,4.75-.07,9.5,0,14.25,0C237.71,611.38,238.63,611.31,239.51,611.27Zm84.6,0c.91.06,1.83.16,2.74.16q64.77,0,129.53,0c10.84,0,19-4.88,24.52-14.16,2.75-4.62,5.41-9.3,8.1-14a15.48,15.48,0,0,0,.75-1.7C434.51,591.59,379.25,600.95,324.12,611.22ZM145.45,306.49l-.35-.17c-.29.66-.62,1.31-.87,2q-2.57,7-5.12,14-15.58,42.64-31.18,85.26c-3.53,9.6-2.18,18.2,4.47,26,2.47,2.89,4.88,5.82,7.35,8.71a11.22,11.22,0,0,0,1.49,1.24Zm411.21,10.93c-2.36,9.46-23.93,133.67-23.57,136.35.42-1.09.73-1.85,1-2.62q6.47-17.67,12.94-35.35,11.56-31.65,23.09-63.3c3.28-9,1.74-17.21-4.34-24.58-2.49-3-5-6-7.55-9C557.79,318.44,557.25,318,556.67,317.42ZM178.33,510.81l-.39.36c.68.87,1.34,1.77,2.06,2.62L225.64,568q10.9,12.95,21.81,25.89c6.24,7.38,14.12,10.35,23.7,8.66,3.94-.7,7.89-1.36,11.83-2.05.57-.1,1.13-.31,2-.54Zm-3.54-286.47c44.15-16.13,87.67-31.78,131-47.91a3,3,0,0,0-1.63-.08l-63.56,11.18c-14.23,2.51-28.47,4.94-42.68,7.58a22.23,22.23,0,0,0-16.75,12.72C178.76,212.93,177.06,218.39,174.79,224.34ZM372,584.17l.16.6c3.2-.54,6.41-1,9.6-1.61L445.32,572c11.52-2,23.07-4,34.56-6.17,8.76-1.69,14.7-7,17.94-15.3,1.46-3.73,2.76-7.52,4.12-11.29.27-.74.43-1.52.68-2.45ZM499.23,249.94l.41-.4c-.61-.79-1.2-1.61-1.85-2.37L455.2,196.55q-12.54-14.89-25.08-29.78a23.61,23.61,0,0,0-16.3-8.73,27.49,27.49,0,0,0-6.6.28c-4.75.71-9.46,1.62-14.56,2.51ZM154.87,468.81V355.41a4.87,4.87,0,0,0-.87,2.06q-7.5,42.33-14.95,84.68a19.08,19.08,0,0,0,5,17C147.15,462.49,150.88,465.3,154.87,468.81ZM323.21,583.45c-4-3.08-96.05-55.77-98.38-56.29l14.46,12.1q26,21.72,51.93,43.46a24.39,24.39,0,0,0,10,5.23C309.24,589.93,315.9,585.9,323.21,583.45Zm-153-317.55,97.9-56.34a5.74,5.74,0,0,0-3.18.4l-37.74,13.68c-13.57,4.92-27.13,9.87-40.71,14.75-5.74,2.06-10.13,5.63-12.65,11.22C171.57,254.55,171.45,260,170.19,265.9ZM507.61,495.72l-.58-.35L410,551.2l.28.61c1.07-.35,2.15-.68,3.21-1.06l35.66-12.93q21.1-7.65,42.2-15.28c6.2-2.23,11-6.13,13-12.41C505.93,505.48,506.57,500.53,507.61,495.72ZM354.29,177.6l95.31,54.84a11.36,11.36,0,0,0,1.43.63c.06,0,.19-.06.27-.12s.08-.14.17-.33c-.6-.53-1.21-1.1-1.85-1.63l-35.45-29.65Q400,189.45,385.75,177.57a20.35,20.35,0,0,0-15.2-5.09C364.94,173,360,175.6,354.29,177.6ZM523.87,293v107a1.08,1.08,0,0,0,.63-.78c4.79-27,9.65-54,14.3-81,1.16-6.76-1.09-12.77-6-17.58C530.17,298.13,527.21,295.89,523.87,293ZM176.81,388.21l-.62.18q0,19.45,0,38.89,0,18.18,0,36.37a18.3,18.3,0,0,0,6,14.12c3.29,3,7.44,4.65,11.81,7.42Zm74.38-146.36-.33-.5c-.9.47-1.83.91-2.71,1.41L215,261.86c-9.51,5.47-19,11-28.54,16.4-6.89,3.9-10.28,9.75-10.23,17.63,0,2,0,4,0,6a19.52,19.52,0,0,0,.37,2.34ZM359.35,560.42c-3.39-2-89.42-33-91.89-33.14,1.12.69,2,1.26,2.89,1.78l26.84,15.46,35.07,20.18c5.13,3,10.58,3.8,16.08,1.54C352.1,564.71,355.56,562.46,359.35,560.42Zm73.22-43,.37.49,5.19-3q28.95-16.65,57.9-33.29a17.79,17.79,0,0,0,8.56-10.14c1.53-4.69.76-9.5.88-15.06ZM408.09,229.33l.22-.51c-1-.61-1.93-1.24-2.92-1.81l-43.63-25.09q-7-4-14-8c-3-1.73-6.24-2.66-9.72-1.84-4.89,1.15-8.77,4.24-13.76,6.92Zm82.41,46.92,14.38,81.24a1.57,1.57,0,0,0,.61-1.33q0-30.68,0-61.35a17.87,17.87,0,0,0-.37-3.44C503.53,283.45,497.75,279.54,490.5,276.25ZM375.9,235.12v-.53a3.54,3.54,0,0,0-.53-.3c-18.32-6.67-36.6-13.42-55-20-7.11-2.53-15.41.77-19.84,7.55Zm-176.46,187-.44.12a14.08,14.08,0,0,0,.11,1.52c3.26,18.36,6.68,36.68,9.73,55.07,1.3,7.84,5.88,13.52,16.95,15.43ZM459,264.51l-.64.61,26.21,71.75a59.26,59.26,0,0,0-1.19-10.11q-4.2-23.83-8.4-47.66a15.22,15.22,0,0,0-8.12-11.45A81.4,81.4,0,0,0,459,264.51Zm-8.6,216.68.33.35c.78-.6,1.59-1.18,2.35-1.81l23.29-19.47L495.77,444c4.05-3.39,6.21-7.71,5.88-13-.17-2.77-.83-5.5-1.39-9Zm-66.44,56.07-76.2-13.39a3,3,0,0,0,1.62,1.21q26.74,9.71,53.5,19.39a19.33,19.33,0,0,0,4.61,1C374.44,546.16,379,542.06,383.95,537.27ZM183.67,336.2l.73.16,48.66-57.79-.46-.46c-.8.62-1.62,1.21-2.39,1.85q-8.75,7.29-17.48,14.6-12.13,10.14-24.27,20.28c-4.46,3.71-6.59,8.42-6,14.21C182.7,331.46,183.26,333.82,183.67,336.2Zm98.57-90.94h58.19c-.54-.35-.7-.52-.89-.56-13.91-2.44-27.82-4.9-41.74-7.27C291,236.27,285.93,238.83,282.24,245.26Zm147,15.24-.51.51,29.12,50.27a7.56,7.56,0,0,0,0-1.62c-4.91-13.46-9.78-26.93-14.79-40.36a12.51,12.51,0,0,0-9.19-8C432.3,261,430.74,260.78,429.21,260.5Zm60,134.63-.85-.12-29.24,50.48a6.49,6.49,0,0,0,1.25-.71q14-16.58,27.93-33.19a11.52,11.52,0,0,0,2.71-9.16A67.63,67.63,0,0,0,489.23,395.13Zm-234,103.22c-2.38-5.41-27.28-47.92-29.09-49.56.28.89.46,1.59.71,2.27q6.76,18.54,13.55,37.07C242.93,495.07,247.36,498.14,255.21,498.34Zm-59.78-133.9,28.85-49.82a4.58,4.58,0,0,0-2.33,1.64c-8.3,9.85-16.48,19.79-24.92,29.52C192.05,351.52,191.91,357.45,195.43,364.45ZM343.71,513.78c.14.23.19.38.26.4,14.53,2.58,29,5.29,43.61,7.67,6,1,11.36-2.38,14.08-8.06ZM269.37,268.48c3.39.19,38.49-6.07,40.76-7.32h-9.36c-6.73,0-13.47,0-20.2,0C275.35,261.22,271.64,263.64,269.37,268.48ZM414.56,490.1l-40.8,7.19a27.11,27.11,0,0,0,6.7.57c7.8,0,15.59,0,23.39,0C409,497.8,412.74,495.13,414.56,490.1Zm13.57-197.22.49-.33c-.49-.9-1-1.81-1.48-2.7q-5.84-10.11-11.69-20.21c-.69-1.18-1.33-2.39-2.11-3.52a10.56,10.56,0,0,0-11.44-4.42Zm32.27,117.6.52.23c.55-.88,1.12-1.75,1.65-2.65,4.34-7.47,8.61-15,13-22.42,2.24-3.74,2.55-9.69-1.24-13.4ZM223.64,348.6l-.59-.31-5.84,10.06c-3,5.19-6.07,10.34-9,15.58-2.55,4.59-2,9,1.45,12.89Zm32.75,118.17-.5.51c.48.91.94,1.83,1.46,2.72q5.62,9.73,11.27,19.45c.74,1.28,1.44,2.59,2.3,3.78a10.28,10.28,0,0,0,11.17,4.06Zm29.47,9.51-.49.47c4.13,4.82,8.15,9.74,12.46,14.4,1.89,2.05,4.59,2.62,8.17,2Zm.51-193.73-.15-.53c-6.07,1.07-12.18,2-18.21,3.26-3,.64-5.38,2.51-6.49,6.29ZM397.86,476.44l.16.62c6.3-1.17,12.63-2.17,18.87-3.58,2.71-.61,4.64-2.6,5.65-6ZM225.33,405.09l4.56-25.84a142,142,0,0,0-6.75,17C222.2,399.17,222.6,402.09,225.33,405.09Zm228.82-25.4.63.1c2.08-5.72,4.26-11.4,6.15-17.17a10.9,10.9,0,0,0,0-5,3.8,3.8,0,0,0-2.27-3.26ZM379,265.79l-.33.67,19.14,16,.5-.5q-3.09-3.69-6.19-7.38c-1.7-2-3.33-4.08-5.13-6A8.67,8.67,0,0,0,379,265.79ZM241.7,406.2c-2.16,4.22-2.26,8.9,0,11.49Zm200.68-52.92c.76-3.89,3-7.83,0-11.78ZM268.47,306.53l-.28-.66c-3.32,1.72-7.65,1.66-9.71,5.57l.37.65Zm46.94,173c4.84,5.46,6.37,6.3,10,5.72Zm110.16-31.9-.45-.61-9.29,5.36.34.61C419.47,451.52,423.52,451.41,425.58,447.66Zm-88.71,25.51c3.77,3.21,6.18,3.34,9.12.61Zm21.88-199.66c4.54,3.3,7.42,4.77,9.41,4.82C365.4,276.13,363.33,273.15,358.76,273.51Z"/></g></g></svg>